<svg id="Layer_1" data-name="Layer 1" xmlns="http://www.w3.org/2000/svg" viewBox="0 0 122.88 85.82"><defs><style>.cls-1{fill-rule:evenodd;}</style></defs><title>food-delivery</title><path class="cls-1" d="M77.1.61h40.36a2.48,2.48,0,0,1,2.47,2.47V30.52h.24a2.72,2.72,0,0,1,2.71,2.72v3A2.77,2.77,0,0,1,120.12,39H101.05c14.17,1.26,22.27,14.44,21.39,31.58H109.83a15,15,0,0,1-29.95,0h-38c0-.27,0-.54,0-.8a40.85,40.85,0,0,1-.34,5.8l-7.91-3.73A15.29,15.29,0,1,1,7.61,59.63L0,56c6.34-7.21,14-10.24,23.25-8.16,3.31.84,6.41,1.59-.08,0A112.39,112.39,0,0,1,33.72,13.07L29,13h0c-1,0-2.05.25-2.72-.24a3.59,3.59,0,0,1-2.88-1.84,7.12,7.12,0,0,1-1-3.79,7.16,7.16,0,0,1,1-3.8,3.91,3.91,0,0,1,2-1.68,1,1,0,0,1,0-.3C26.51-.46,28.7.08,30.65.08l1.9.12a11.1,11.1,0,0,1,4,1.36l2.17,1.22h1.76L46.4,3.92c1.93.38,2.21.22,1.76,2.59a7.49,7.49,0,0,1-.24.9c-.58,1.73-1,1.09-2.84.72L39.55,7c.21,2.23-.5,5-1.49,8.15,3.17,2.69,4.61,6.52,2.43,11.58L35.21,43c8.86,6.28,14.18,12,14.49,21.29H60.93c7.22-5.47,6-15.21-1.9-21.43V39h0V33.16c0-1.86,1-2.7,2.85-2.64H74.63V3.08A2.48,2.48,0,0,1,77.1.61ZM24.36,67.53,16.81,64a6.72,6.72,0,1,0,7.55,3.56Zm1.1-64.26c.09,2.53.25,5.78.37,8a3.4,3.4,0,0,1-.61-.72,6.54,6.54,0,0,1-.89-3.46,6.5,6.5,0,0,1,.89-3.45c.08-.12.16-.24.24-.34ZM98.22,4.86a2.27,2.27,0,0,1,1.6.67,2.32,2.32,0,0,1,.35,2.8,13.12,13.12,0,0,1,3.41,1c5,2.5,7.74,6.41,7.74,12.22a.67.67,0,0,1-.62.67H85.77a.66.66,0,0,1-.66-.67A12.88,12.88,0,0,1,92.85,9.34a12.64,12.64,0,0,1,3.41-1,2.31,2.31,0,0,1,.35-2.8,2.28,2.28,0,0,1,1.61-.67ZM82.36,26.09V24.22a.19.19,0,0,1,.19-.2h31.24a.19.19,0,0,1,.19.2v1.87a.19.19,0,0,1-.19.19H82.55a.19.19,0,0,1-.19-.19ZM101.45,70.6a6.6,6.6,0,0,1-13.19,0Z"/></svg>